<svg width="1100" height="860" viewBox="0 0 1100 860" fill="none" xmlns="http://www.w3.org/2000/svg">
  <defs>
    <linearGradient id="bg" x1="120" y1="40" x2="980" y2="860" gradientUnits="userSpaceOnUse">
      <stop stop-color="#F4FBFF"/>
      <stop offset="0.55" stop-color="#EEF6FD"/>
      <stop offset="1" stop-color="#E7F0FA"/>
    </linearGradient>
    <radialGradient id="glowA" cx="0" cy="0" r="1" gradientUnits="userSpaceOnUse" gradientTransform="translate(190 118) rotate(32) scale(220 160)">
      <stop stop-color="white" stop-opacity="0.95"/>
      <stop offset="1" stop-color="white" stop-opacity="0"/>
    </radialGradient>
    <radialGradient id="glowB" cx="0" cy="0" r="1" gradientUnits="userSpaceOnUse" gradientTransform="translate(910 140) rotate(135) scale(250 180)">
      <stop stop-color="#BDE4FF" stop-opacity="0.55"/>
      <stop offset="1" stop-color="#BDE4FF" stop-opacity="0"/>
    </radialGradient>
    <linearGradient id="panelStroke" x1="65" y1="30" x2="1010" y2="810" gradientUnits="userSpaceOnUse">
      <stop stop-color="#D5E5F4"/>
      <stop offset="1" stop-color="#C5D8EC"/>
    </linearGradient>
    <linearGradient id="fillBlue" x1="0" y1="0" x2="0" y2="1">
      <stop stop-color="#6FD7FF"/>
      <stop offset="1" stop-color="#43B9F6"/>
    </linearGradient>
    <linearGradient id="fillGreen" x1="0" y1="0" x2="1" y2="1">
      <stop stop-color="#B7F0D2"/>
      <stop offset="1" stop-color="#88D8BC"/>
    </linearGradient>
    <linearGradient id="fillOrange" x1="0" y1="0" x2="1" y2="1">
      <stop stop-color="#FFD7AB"/>
      <stop offset="1" stop-color="#FFB46D"/>
    </linearGradient>
    <linearGradient id="fillRose" x1="0" y1="0" x2="1" y2="1">
      <stop stop-color="#FFB9B1"/>
      <stop offset="1" stop-color="#FF887E"/>
    </linearGradient>
    <filter id="shadow" x="-30%" y="-30%" width="160%" height="180%">
      <feDropShadow dx="0" dy="18" stdDeviation="18" flood-color="#88A9C7" flood-opacity="0.18"/>
    </filter>
    <filter id="softShadow" x="-30%" y="-30%" width="160%" height="180%">
      <feDropShadow dx="0" dy="10" stdDeviation="12" flood-color="#88A9C7" flood-opacity="0.13"/>
    </filter>
    <style>
      .label { font: 600 24px "Segoe UI", "PingFang SC", sans-serif; fill: #28415D; }
      .sub { font: 500 15px "Segoe UI", "PingFang SC", sans-serif; fill: #6C85A1; letter-spacing: .06em; }
      .small { font: 600 14px "Segoe UI", "PingFang SC", sans-serif; fill: #6E88A3; }
      .nodeText { font: 600 17px "Segoe UI", "PingFang SC", sans-serif; fill: #28415D; }
      .nodeTextDark { font: 700 25px "Segoe UI", "PingFang SC", sans-serif; fill: white; }
      .lineText { font: 500 18px "Segoe UI", "PingFang SC", sans-serif; fill: #586C82; }
      .badge { font: 700 13px "Segoe UI", "PingFang SC", sans-serif; fill: white; }
    </style>
  </defs>

  <rect width="1100" height="860" rx="36" fill="url(#bg)"/>
  <rect width="1100" height="860" rx="36" fill="url(#glowA)"/>
  <rect width="1100" height="860" rx="36" fill="url(#glowB)"/>
  <rect x="18" y="18" width="1064" height="824" rx="30" fill="none" stroke="url(#panelStroke)" stroke-width="2"/>

  <text x="74" y="82" class="label">MoonMarkMind</text>
  <text x="300" y="82" class="sub">CURRENT UI STYLE MOCKUP</text>

  <g transform="translate(68 132)">
    <rect x="0" y="0" width="170" height="92" rx="22" fill="rgba(255,255,255,0.55)" stroke="#2B3440" stroke-width="3" stroke-dasharray="5 12"/>
    <text x="85" y="57" text-anchor="middle" class="label">填充</text>
  </g>

  <g transform="translate(64 468)">
    <rect x="0" y="0" width="170" height="92" rx="22" fill="rgba(255,255,255,0.55)" stroke="#2B3440" stroke-width="3" stroke-dasharray="5 12"/>
    <text x="85" y="57" text-anchor="middle" class="label">线条</text>
  </g>

  <g transform="translate(244 118)" filter="url(#shadow)">
    <rect x="0" y="0" width="790" height="256" rx="34" fill="rgba(255,255,255,0.42)" stroke="#D6E5F2" stroke-width="2"/>
    <text x="40" y="44" class="sub">Fill Style Preview</text>

    <path d="M246 108C296 108 296 66 344 66" stroke="#FF7D75" stroke-width="4" stroke-linecap="round"/>
    <path d="M246 108C296 108 296 146 344 146" stroke="#FFB06D" stroke-width="4" stroke-linecap="round"/>
    <path d="M246 108C296 108 296 208 344 208" stroke="#74D7D6" stroke-width="4" stroke-linecap="round"/>
    <path d="M246 108C296 108 296 260 344 260" stroke="#68C8FF" stroke-width="4" stroke-linecap="round"/>

    <rect x="64" y="64" width="178" height="84" rx="16" fill="#0D1218" stroke="#54C2FF" stroke-width="3"/>
    <text x="153" y="115" text-anchor="middle" class="nodeTextDark">中心主题</text>

    <g filter="url(#softShadow)">
      <rect x="344" y="30" width="136" height="54" rx="12" fill="url(#fillRose)" stroke="#52C2FF" stroke-width="2"/>
      <text x="412" y="64" text-anchor="middle" class="nodeText">分支主题 2</text>

      <rect x="344" y="112" width="136" height="54" rx="12" fill="url(#fillOrange)" stroke="#52C2FF" stroke-width="2"/>
      <text x="412" y="146" text-anchor="middle" class="nodeText">分支主题 5</text>

      <rect x="344" y="194" width="136" height="54" rx="12" fill="url(#fillGreen)" stroke="#52C2FF" stroke-width="2"/>
      <text x="412" y="228" text-anchor="middle" class="nodeText">分支主题 1</text>

      <rect x="344" y="276" width="136" height="54" rx="12" fill="url(#fillBlue)" stroke="#52C2FF" stroke-width="2"/>
      <text x="412" y="310" text-anchor="middle" class="nodeText">分支主题 3</text>
    </g>

    <path d="M480 57H530" stroke="#FF7D75" stroke-width="3"/>
    <circle cx="531" cy="57" r="6" fill="white" stroke="#FF7D75" stroke-width="3"/>
    <path d="M537 57H574" stroke="#FF7D75" stroke-width="3"/>
    <rect x="576" y="38" width="94" height="38" rx="10" fill="white" stroke="#8CCFFF" stroke-width="2"/>
    <text x="623" y="62" text-anchor="middle" class="small">细分主题 1</text>

    <path d="M480 139H530" stroke="#FFB06D" stroke-width="3"/>
    <circle cx="531" cy="139" r="6" fill="white" stroke="#FFB06D" stroke-width="3"/>
    <path d="M537 139H574" stroke="#FFB06D" stroke-width="3"/>
    <rect x="576" y="120" width="94" height="38" rx="10" fill="white" stroke="#8CCFFF" stroke-width="2"/>
    <text x="623" y="144" text-anchor="middle" class="small">细分主题 1</text>
    <circle cx="685" cy="139" r="10" fill="#FF9F78"/>
    <text x="685" y="144" text-anchor="middle" class="badge">2</text>
  </g>

  <g transform="translate(246 434)" filter="url(#shadow)">
    <rect x="0" y="0" width="790" height="322" rx="34" fill="rgba(255,255,255,0.42)" stroke="#D6E5F2" stroke-width="2"/>
    <text x="40" y="44" class="sub">Line Style Preview</text>

    <path d="M118 164C178 164 178 58 244 58" stroke="#FF8A1E" stroke-width="4" fill="none"/>
    <path d="M118 164C178 164 178 164 244 164" stroke="#30A13F" stroke-width="4" fill="none"/>
    <path d="M118 164C178 164 178 274 244 274" stroke="#F23B45" stroke-width="4" fill="none"/>

    <text x="42" y="157" class="lineText" font-size="26">MoonMarkMind</text>
    <circle cx="118" cy="164" r="10" fill="white" stroke="#4E8DD4" stroke-width="3"/>

    <text x="256" y="48" class="lineText">Links</text>
    <circle cx="326" cy="57" r="10" fill="white" stroke="#FF8A1E" stroke-width="3"/>
    <text x="470" y="48" class="lineText" fill="#2AA7FF">MoonBit Package</text>
    <line x1="468" y1="57" x2="675" y2="57" stroke="#2AA7FF" stroke-width="3"/>

    <text x="256" y="154" class="lineText">Related Projects</text>
    <circle cx="452" cy="164" r="10" fill="white" stroke="#30A13F" stroke-width="3"/>
    <path d="M462 164H586" stroke="#30A13F" stroke-width="3" fill="none"/>
    <path d="M452 164C520 164 520 200 584 200" stroke="#30A13F" stroke-width="3" fill="none"/>
    <path d="M452 164C520 164 520 242 584 242" stroke="#30A13F" stroke-width="3" fill="none"/>
    <text x="596" y="194" class="lineText"><tspan font-weight="700">strong</tspan><tspan dx="6">del</tspan><tspan dx="6" font-style="italic">italic</tspan><tspan dx="6">highlight</tspan></text>
    <text x="596" y="236" class="lineText">☑ checkbox <tspan font-family="Consolas, monospace" font-size="15">inline code</tspan></text>

    <text x="256" y="260" class="lineText">Features</text>
    <circle cx="366" cy="274" r="10" fill="white" stroke="#F23B45" stroke-width="3"/>
    <path d="M376 274C430 274 430 228 496 228" stroke="#F23B45" stroke-width="3" fill="none"/>
    <path d="M376 274C430 274 430 310 496 310" stroke="#F23B45" stroke-width="3" fill="none"/>
    <text x="506" y="218" class="lineText">Lists</text>
    <circle cx="564" cy="228" r="10" fill="white" stroke="#F23B45" stroke-width="3"/>
    <path d="M574 228H720" stroke="#F23B45" stroke-width="3"/>
    <text x="700" y="218" class="lineText">other</text>
    <circle cx="776" cy="218" r="10" fill="#F23B45"/>
    <text x="776" y="223" text-anchor="middle" class="badge">2</text>

    <text x="506" y="300" class="lineText">Blocks</text>
    <circle cx="564" cy="310" r="10" fill="white" stroke="#F23B45" stroke-width="3"/>
    <path d="M574 310H972" stroke="#F23B45" stroke-width="3"/>

    <rect x="726" y="255" width="250" height="82" rx="14" fill="rgba(255,255,255,0.74)" stroke="#C7D8E9" stroke-width="2"/>
    <line x1="810" y1="255" x2="810" y2="337" stroke="#C7D8E9" stroke-width="2"/>
    <line x1="905" y1="255" x2="905" y2="337" stroke="#C7D8E9" stroke-width="2"/>
    <line x1="726" y1="289" x2="976" y2="289" stroke="#C7D8E9" stroke-width="2"/>
    <text x="768" y="279" text-anchor="middle" class="small">Language</text>
    <text x="858" y="279" text-anchor="middle" class="small">Packages</text>
    <text x="941" y="279" text-anchor="middle" class="small">Count</text>
    <text x="768" y="318" text-anchor="middle" class="lineText" font-size="20">MoonBit</text>
    <text x="858" y="318" text-anchor="middle" class="lineText" font-size="20">core</text>
    <text x="941" y="318" text-anchor="middle" class="lineText" font-size="20">6000+</text>
  </g>
</svg>
