<svg width="1200" height="760" viewBox="0 0 1200 760" fill="none" xmlns="http://www.w3.org/2000/svg">
  <defs>
    <linearGradient id="bg" x1="80" y1="40" x2="1120" y2="760" gradientUnits="userSpaceOnUse">
      <stop stop-color="#F5FBFF"/>
      <stop offset="0.6" stop-color="#EEF6FD"/>
      <stop offset="1" stop-color="#E8F1FA"/>
    </linearGradient>
    <radialGradient id="glow" cx="0" cy="0" r="1" gradientUnits="userSpaceOnUse" gradientTransform="translate(260 120) rotate(20) scale(260 170)">
      <stop stop-color="white" stop-opacity="0.9"/>
      <stop offset="1" stop-color="white" stop-opacity="0"/>
    </radialGradient>
    <linearGradient id="centerBlue" x1="452" y1="276" x2="748" y2="396" gradientUnits="userSpaceOnUse">
      <stop stop-color="#243B4F"/>
      <stop offset="1" stop-color="#182633"/>
    </linearGradient>
    <linearGradient id="rose" x1="0" y1="0" x2="1" y2="1"><stop stop-color="#FFB9B1"/><stop offset="1" stop-color="#FF857B"/></linearGradient>
    <linearGradient id="orange" x1="0" y1="0" x2="1" y2="1"><stop stop-color="#FFDAB0"/><stop offset="1" stop-color="#FFB468"/></linearGradient>
    <linearGradient id="green" x1="0" y1="0" x2="1" y2="1"><stop stop-color="#BCEED0"/><stop offset="1" stop-color="#86D7B3"/></linearGradient>
    <linearGradient id="blue" x1="0" y1="0" x2="1" y2="1"><stop stop-color="#89DFFF"/><stop offset="1" stop-color="#46B9F5"/></linearGradient>
    <linearGradient id="violet" x1="0" y1="0" x2="1" y2="1"><stop stop-color="#D9CCFF"/><stop offset="1" stop-color="#A8B6FF"/></linearGradient>
    <filter id="shadow" x="-30%" y="-30%" width="160%" height="180%">
      <feDropShadow dx="0" dy="14" stdDeviation="18" flood-color="#8AA8C4" flood-opacity="0.18"/>
    </filter>
    <style>
      .title { font: 700 28px "Segoe UI", "PingFang SC", sans-serif; fill: #27405C; }
      .label { font: 700 18px "Segoe UI", "PingFang SC", sans-serif; fill: #28415D; }
      .detail { font: 600 15px "Segoe UI", "PingFang SC", sans-serif; fill: #6E86A1; }
      .center { font: 700 34px "Segoe UI", "PingFang SC", sans-serif; fill: #F7FBFF; }
    </style>
  </defs>

  <rect width="1200" height="760" rx="34" fill="url(#bg)"/>
  <rect width="1200" height="760" rx="34" fill="url(#glow)"/>
  <text x="64" y="84" class="title">思维图 · 填充</text>

  <path d="M452 336C414 336 418 140 380 140H330" stroke="#55C3FB" stroke-width="5" stroke-linecap="round"/>
  <path d="M452 336C412 336 412 260 380 260H330" stroke="#74D9C4" stroke-width="5" stroke-linecap="round"/>
  <path d="M452 336C412 336 416 520 380 520H330" stroke="#B2B8FF" stroke-width="5" stroke-linecap="round"/>
  <path d="M748 336C788 336 792 180 830 180H880" stroke="#FF8B83" stroke-width="5" stroke-linecap="round"/>
  <path d="M748 336C790 336 792 360 830 360H880" stroke="#FFB56C" stroke-width="5" stroke-linecap="round"/>
  <circle cx="380" cy="140" r="8" fill="white" stroke="#55C3FB" stroke-width="4"/>
  <circle cx="380" cy="260" r="8" fill="white" stroke="#74D9C4" stroke-width="4"/>
  <circle cx="380" cy="520" r="8" fill="white" stroke="#B2B8FF" stroke-width="4"/>
  <circle cx="830" cy="180" r="8" fill="white" stroke="#FF8B83" stroke-width="4"/>
  <circle cx="830" cy="360" r="8" fill="white" stroke="#FFB56C" stroke-width="4"/>
  <path d="M1060 180H1080" stroke="#FF8B83" stroke-width="4" stroke-linecap="round"/>
  <path d="M1060 360H1080" stroke="#FFB56C" stroke-width="4" stroke-linecap="round"/>
  <circle cx="1080" cy="180" r="8" fill="white" stroke="#FF8B83" stroke-width="4"/>
  <circle cx="1080" cy="360" r="8" fill="white" stroke="#FFB56C" stroke-width="4"/>
  <path d="M1080 180H1098" stroke="#FF8B83" stroke-width="4" stroke-linecap="round"/>
  <path d="M1080 360H1098" stroke="#FFB56C" stroke-width="4" stroke-linecap="round"/>

  <g filter="url(#shadow)">
    <rect x="452" y="276" width="296" height="120" rx="24" fill="url(#centerBlue)" stroke="#63C9FF" stroke-width="4"/>
    <text x="600" y="347" text-anchor="middle" class="center">中心主题</text>

    <rect x="150" y="94" width="180" height="92" rx="18" fill="url(#blue)" stroke="#55C3FB" stroke-width="3"/>
    <text x="240" y="148" text-anchor="middle" class="label">分支主题 4</text>

    <rect x="150" y="214" width="180" height="92" rx="18" fill="url(#green)" stroke="#55C3FB" stroke-width="3"/>
    <text x="240" y="268" text-anchor="middle" class="label">分支主题 3</text>

    <rect x="150" y="474" width="180" height="92" rx="18" fill="url(#violet)" stroke="#55C3FB" stroke-width="3"/>
    <text x="240" y="528" text-anchor="middle" class="label">分支主题 5</text>

    <rect x="880" y="134" width="180" height="92" rx="18" fill="url(#rose)" stroke="#55C3FB" stroke-width="3"/>
    <text x="970" y="188" text-anchor="middle" class="label">分支主题 1</text>

    <rect x="880" y="314" width="180" height="92" rx="18" fill="url(#orange)" stroke="#55C3FB" stroke-width="3"/>
    <text x="970" y="368" text-anchor="middle" class="label">分支主题 2</text>

    <rect x="1098" y="154" width="84" height="52" rx="14" fill="white" stroke="#90D2FF" stroke-width="3"/>
    <text x="1140" y="186" text-anchor="middle" class="detail">细分 A</text>

    <rect x="1098" y="334" width="84" height="52" rx="14" fill="white" stroke="#90D2FF" stroke-width="3"/>
    <text x="1140" y="366" text-anchor="middle" class="detail">细分 B</text>
  </g>
</svg>
