<svg width="1600" height="1000" viewBox="0 0 1600 1000" fill="none" xmlns="http://www.w3.org/2000/svg">
  <defs>
    <linearGradient id="bg" x1="160" y1="60" x2="1440" y2="940" gradientUnits="userSpaceOnUse">
      <stop stop-color="#EAF7FF"/>
      <stop offset="0.55" stop-color="#F5FBFF"/>
      <stop offset="1" stop-color="#EDF5FF"/>
    </linearGradient>
    <linearGradient id="glass" x1="0" y1="0" x2="0" y2="1">
      <stop stop-color="rgba(255,255,255,0.78)"/>
      <stop offset="1" stop-color="rgba(255,255,255,0.48)"/>
    </linearGradient>
    <linearGradient id="accent" x1="0" y1="0" x2="1" y2="1">
      <stop stop-color="#62D0FF"/>
      <stop offset="1" stop-color="#7AF0C8"/>
    </linearGradient>
    <filter id="blur" x="-20%" y="-20%" width="140%" height="140%">
      <feGaussianBlur stdDeviation="40"/>
    </filter>
    <filter id="shadow" x="-20%" y="-20%" width="140%" height="140%">
      <feDropShadow dx="0" dy="18" stdDeviation="25" flood-color="#9AB6D6" flood-opacity="0.28"/>
    </filter>
  </defs>

  <rect width="1600" height="1000" fill="url(#bg)"/>
  <circle cx="220" cy="180" r="120" fill="#8FE7FF" opacity="0.55" filter="url(#blur)"/>
  <circle cx="1360" cy="150" r="140" fill="#A8FFD6" opacity="0.42" filter="url(#blur)"/>
  <circle cx="1340" cy="860" r="150" fill="#CFE0FF" opacity="0.55" filter="url(#blur)"/>

  <rect x="34" y="28" width="1532" height="944" rx="36" fill="white" fill-opacity="0.28" stroke="#FFFFFF" stroke-opacity="0.7" stroke-width="2"/>
  <rect x="56" y="50" width="1488" height="900" rx="34" fill="#FFFFFF" fill-opacity="0.4" filter="url(#shadow)"/>

  <text x="96" y="106" fill="#14324B" font-size="34" font-family="Segoe UI, PingFang SC, Microsoft YaHei, sans-serif" font-weight="700">MoonMarkMind</text>
  <text x="1312" y="105" fill="#56738C" font-size="18" font-family="Segoe UI, PingFang SC, Microsoft YaHei, sans-serif">Aurora Glass</text>

  <g font-family="Segoe UI, PingFang SC, Microsoft YaHei, sans-serif" font-size="20" font-weight="600">
    <rect x="96" y="134" width="110" height="48" rx="24" fill="#FFFFFF" fill-opacity="0.75" stroke="#FF8F80" stroke-opacity="0.6" stroke-width="2"/>
    <text x="131" y="165" fill="#FF6F5D">新建</text>
    <rect x="222" y="134" width="110" height="48" rx="24" fill="#FFFFFF" fill-opacity="0.75" stroke="#7AE2BE" stroke-opacity="0.75" stroke-width="2"/>
    <text x="257" y="165" fill="#19A66D">上传</text>
    <rect x="348" y="134" width="110" height="48" rx="24" fill="#FFFFFF" fill-opacity="0.75" stroke="#7BAFFF" stroke-opacity="0.75" stroke-width="2"/>
    <text x="383" y="165" fill="#2F71FF">下载</text>
  </g>

  <g font-family="Segoe UI, PingFang SC, Microsoft YaHei, sans-serif">
    <text x="860" y="166" fill="#56738C" font-size="18">类型</text>
    <rect x="908" y="134" width="126" height="48" rx="24" fill="#FFFFFF" fill-opacity="0.75" stroke="#C8DBF0" stroke-width="2"/>
    <text x="944" y="165" fill="#17334D" font-size="20" font-weight="600">思维图</text>

    <text x="1062" y="166" fill="#56738C" font-size="18">样式</text>
    <rect x="1110" y="134" width="126" height="48" rx="24" fill="#FFFFFF" fill-opacity="0.75" stroke="#C8DBF0" stroke-width="2"/>
    <text x="1148" y="165" fill="#17334D" font-size="20" font-weight="600">线条</text>

    <text x="1262" y="166" fill="#56738C" font-size="18">层级</text>
    <rect x="1310" y="134" width="126" height="48" rx="24" fill="#FFFFFF" fill-opacity="0.75" stroke="#C8DBF0" stroke-width="2"/>
    <text x="1354" y="165" fill="#17334D" font-size="20" font-weight="600">全部</text>
  </g>

  <rect x="1452" y="134" width="92" height="48" rx="24" fill="url(#accent)"/>
  <text x="1476" y="165" fill="#0C3040" font-size="20" font-family="Segoe UI, PingFang SC, Microsoft YaHei, sans-serif" font-weight="700">导出</text>

  <rect x="86" y="214" width="468" height="678" rx="30" fill="url(#glass)" stroke="#FFFFFF" stroke-opacity="0.72" stroke-width="2"/>
  <text x="118" y="264" fill="#7A90A6" font-size="18" font-family="Segoe UI, PingFang SC, Microsoft YaHei, sans-serif">Markdown</text>
  <g fill="#15304A" font-size="34" font-family="Cascadia Code, Consolas, monospace">
    <text x="118" y="332"># MoonMarkMind</text>
    <text x="118" y="390">## Parser</text>
    <text x="118" y="448">### Heading extraction</text>
    <text x="118" y="506">### Level mapping</text>
    <text x="118" y="564">## Renderer</text>
    <text x="118" y="622">### ASCII mindmap</text>
    <text x="118" y="680">### Round-trip preview</text>
  </g>

  <rect x="586" y="214" width="872" height="678" rx="30" fill="url(#glass)" stroke="#FFFFFF" stroke-opacity="0.72" stroke-width="2"/>
  <rect x="616" y="244" width="812" height="74" rx="24" fill="#FFFFFF" fill-opacity="0.56"/>
  <g fill="#20405A">
    <circle cx="654" cy="281" r="18" fill="#F5FBFF" stroke="#D5E7F7"/>
    <circle cx="708" cy="281" r="18" fill="#F5FBFF" stroke="#D5E7F7"/>
    <circle cx="762" cy="281" r="18" fill="#F5FBFF" stroke="#D5E7F7"/>
    <circle cx="816" cy="281" r="18" fill="#F5FBFF" stroke="#D5E7F7"/>
    <circle cx="870" cy="281" r="18" fill="#F5FBFF" stroke="#D5E7F7"/>
    <circle cx="924" cy="281" r="18" fill="#F5FBFF" stroke="#D5E7F7"/>
  </g>
  <rect x="1268" y="257" width="130" height="48" rx="24" fill="#FFFFFF" fill-opacity="0.76"/>
  <text x="1311" y="287" fill="#4D6A82" font-size="20" font-family="Segoe UI, PingFang SC, Microsoft YaHei, sans-serif">100%</text>

  <rect x="622" y="340" width="800" height="520" rx="26" stroke="#BFD4E8" stroke-width="2" stroke-dasharray="8 8"/>

  <path d="M1040 550H1160" stroke="#C3D9ED" stroke-width="4"/>
  <path d="M1040 550H920" stroke="#C3D9ED" stroke-width="4"/>
  <path d="M920 550V698" stroke="#C3D9ED" stroke-width="4"/>
  <path d="M1160 550V698" stroke="#C3D9ED" stroke-width="4"/>
  <path d="M920 688H822" stroke="#C3D9ED" stroke-width="4"/>
  <path d="M920 786H822" stroke="#C3D9ED" stroke-width="4"/>
  <path d="M1160 688H1258" stroke="#C3D9ED" stroke-width="4"/>
  <path d="M1160 786H1258" stroke="#C3D9ED" stroke-width="4"/>
  <path d="M1040 550V414" stroke="#C3D9ED" stroke-width="4"/>
  <path d="M1040 414H944" stroke="#C3D9ED" stroke-width="4"/>
  <path d="M1040 414H1136" stroke="#C3D9ED" stroke-width="4"/>

  <rect x="930" y="500" width="220" height="100" rx="28" fill="#103246"/>
  <text x="993" y="540" fill="#A6C3D4" font-size="18" font-family="Segoe UI, PingFang SC, Microsoft YaHei, sans-serif">Level 1</text>
  <text x="965" y="575" fill="white" font-size="36" font-family="Segoe UI, PingFang SC, Microsoft YaHei, sans-serif" font-weight="700">MoonMarkMind</text>

  <g font-family="Segoe UI, PingFang SC, Microsoft YaHei, sans-serif" font-size="18">
    <rect x="804" y="370" width="170" height="82" rx="24" fill="#FFFFFF" fill-opacity="0.9" stroke="#BED7EE" stroke-width="2"/>
    <text x="834" y="405" fill="#7A90A6">Level 2</text>
    <text x="840" y="432" fill="#17334D" font-size="20" font-weight="700">Renderer</text>

    <rect x="1106" y="370" width="170" height="82" rx="24" fill="#FFFFFF" fill-opacity="0.9" stroke="#BED7EE" stroke-width="2"/>
    <text x="1136" y="405" fill="#7A90A6">Level 2</text>
    <text x="1148" y="432" fill="#17334D" font-size="20" font-weight="700">Parser</text>

    <rect x="740" y="646" width="204" height="82" rx="24" fill="#FFFFFF" fill-opacity="0.9" stroke="#BED7EE" stroke-width="2"/>
    <text x="770" y="681" fill="#7A90A6">Level 3</text>
    <text x="776" y="708" fill="#17334D" font-size="20" font-weight="700">ASCII mindmap</text>

    <rect x="740" y="744" width="204" height="82" rx="24" fill="#FFFFFF" fill-opacity="0.9" stroke="#BED7EE" stroke-width="2"/>
    <text x="770" y="779" fill="#7A90A6">Level 3</text>
    <text x="760" y="806" fill="#17334D" font-size="20" font-weight="700">Round-trip</text>

    <rect x="1236" y="646" width="204" height="82" rx="24" fill="#FFFFFF" fill-opacity="0.9" stroke="#BED7EE" stroke-width="2"/>
    <text x="1266" y="681" fill="#7A90A6">Level 3</text>
    <text x="1258" y="708" fill="#17334D" font-size="20" font-weight="700">Heading extraction</text>

    <rect x="1236" y="744" width="204" height="82" rx="24" fill="#FFFFFF" fill-opacity="0.9" stroke="#BED7EE" stroke-width="2"/>
    <text x="1266" y="779" fill="#7A90A6">Level 3</text>
    <text x="1292" y="806" fill="#17334D" font-size="20" font-weight="700">Level mapping</text>
  </g>
</svg>
