<svg width="1600" height="1000" viewBox="0 0 1600 1000" fill="none" xmlns="http://www.w3.org/2000/svg">
  <defs>
    <linearGradient id="bg2" x1="140" y1="40" x2="1460" y2="960" gradientUnits="userSpaceOnUse">
      <stop stop-color="#0B1422"/>
      <stop offset="0.5" stop-color="#101D2F"/>
      <stop offset="1" stop-color="#0B101B"/>
    </linearGradient>
    <linearGradient id="panel2" x1="0" y1="0" x2="0" y2="1">
      <stop stop-color="#172538"/>
      <stop offset="1" stop-color="#111D2C"/>
    </linearGradient>
    <filter id="shadow2" x="-20%" y="-20%" width="140%" height="140%">
      <feDropShadow dx="0" dy="20" stdDeviation="24" flood-color="#000000" flood-opacity="0.4"/>
    </filter>
  </defs>
  <rect width="1600" height="1000" fill="url(#bg2)"/>
  <circle cx="1240" cy="190" r="180" fill="#0ED3A5" opacity="0.07"/>
  <circle cx="260" cy="820" r="220" fill="#2E93FF" opacity="0.08"/>

  <rect x="42" y="34" width="1516" height="932" rx="30" fill="#0E1725" stroke="#22344C" stroke-width="2"/>
  <rect x="64" y="56" width="1472" height="888" rx="28" fill="#0F1B2A" filter="url(#shadow2)"/>

  <text x="94" y="108" fill="white" font-size="34" font-family="Segoe UI, PingFang SC, Microsoft YaHei, sans-serif" font-weight="700">MoonMarkMind</text>
  <text x="1344" y="108" fill="#63D8BA" font-size="18" font-family="Segoe UI, PingFang SC, Microsoft YaHei, sans-serif">Orbit Console</text>

  <g font-family="Segoe UI, PingFang SC, Microsoft YaHei, sans-serif" font-size="20" font-weight="600">
    <rect x="94" y="132" width="98" height="44" rx="14" fill="#231A1A" stroke="#FF7A62" stroke-width="2"/>
    <text x="124" y="161" fill="#FF8C77">新建</text>
    <rect x="206" y="132" width="98" height="44" rx="14" fill="#13261F" stroke="#28C88B" stroke-width="2"/>
    <text x="236" y="161" fill="#59E0AA">上传</text>
    <rect x="318" y="132" width="98" height="44" rx="14" fill="#132235" stroke="#49A2FF" stroke-width="2"/>
    <text x="348" y="161" fill="#74BBFF">下载</text>
  </g>

  <g font-family="Segoe UI, PingFang SC, Microsoft YaHei, sans-serif" font-size="18">
    <text x="888" y="159" fill="#6F89A5">类型</text>
    <rect x="938" y="132" width="116" height="44" rx="14" fill="#18283B" stroke="#29445F"/>
    <text x="970" y="159" fill="#EAF3FF" font-weight="600">思维图</text>

    <text x="1080" y="159" fill="#6F89A5">样式</text>
    <rect x="1130" y="132" width="116" height="44" rx="14" fill="#18283B" stroke="#29445F"/>
    <text x="1166" y="159" fill="#EAF3FF" font-weight="600">线条</text>

    <text x="1270" y="159" fill="#6F89A5">层级</text>
    <rect x="1320" y="132" width="116" height="44" rx="14" fill="#18283B" stroke="#29445F"/>
    <text x="1362" y="159" fill="#EAF3FF" font-weight="600">全部</text>
  </g>

  <rect x="1452" y="132" width="84" height="44" rx="14" fill="#0ED3A5"/>
  <text x="1474" y="160" fill="#072418" font-size="20" font-family="Segoe UI, PingFang SC, Microsoft YaHei, sans-serif" font-weight="700">导出</text>

  <rect x="92" y="208" width="458" height="694" rx="24" fill="url(#panel2)" stroke="#22344C" stroke-width="2"/>
  <text x="122" y="252" fill="#728CAB" font-size="18" font-family="Segoe UI, PingFang SC, Microsoft YaHei, sans-serif">Markdown</text>
  <g fill="#DCEBFF" font-size="30" font-family="Cascadia Code, Consolas, monospace">
    <text x="122" y="320"># MoonMarkMind</text>
    <text x="122" y="376">## Parser</text>
    <text x="122" y="432">### Heading extraction</text>
    <text x="122" y="488">### Level mapping</text>
    <text x="122" y="544">## Renderer</text>
    <text x="122" y="600">### ASCII mindmap</text>
    <text x="122" y="656">### Round-trip preview</text>
  </g>

  <rect x="578" y="208" width="878" height="694" rx="24" fill="url(#panel2)" stroke="#22344C" stroke-width="2"/>
  <rect x="606" y="236" width="822" height="68" rx="18" fill="#121F2F" stroke="#24364D"/>
  <g fill="#9AB4CF">
    <circle cx="642" cy="270" r="16" fill="#18283B" stroke="#29445F"/>
    <circle cx="690" cy="270" r="16" fill="#18283B" stroke="#29445F"/>
    <circle cx="738" cy="270" r="16" fill="#18283B" stroke="#29445F"/>
    <circle cx="786" cy="270" r="16" fill="#18283B" stroke="#29445F"/>
    <circle cx="834" cy="270" r="16" fill="#18283B" stroke="#29445F"/>
    <circle cx="882" cy="270" r="16" fill="#18283B" stroke="#29445F"/>
  </g>
  <rect x="1288" y="248" width="112" height="44" rx="14" fill="#18283B" stroke="#29445F"/>
  <text x="1320" y="276" fill="#DBE9FA" font-size="18" font-family="Segoe UI, PingFang SC, Microsoft YaHei, sans-serif">100%</text>

  <rect x="614" y="328" width="806" height="546" rx="22" fill="#0D1724" stroke="#27425D" stroke-width="2" stroke-dasharray="8 8"/>

  <path d="M1040 540H1174" stroke="#1F8AFF" stroke-opacity="0.9" stroke-width="4"/>
  <path d="M1040 540H906" stroke="#1F8AFF" stroke-opacity="0.9" stroke-width="4"/>
  <path d="M906 540V698" stroke="#1F8AFF" stroke-opacity="0.55" stroke-width="4"/>
  <path d="M1174 540V698" stroke="#1F8AFF" stroke-opacity="0.55" stroke-width="4"/>
  <path d="M906 692H808" stroke="#1F8AFF" stroke-opacity="0.55" stroke-width="4"/>
  <path d="M906 794H808" stroke="#1F8AFF" stroke-opacity="0.55" stroke-width="4"/>
  <path d="M1174 692H1272" stroke="#1F8AFF" stroke-opacity="0.55" stroke-width="4"/>
  <path d="M1174 794H1272" stroke="#1F8AFF" stroke-opacity="0.55" stroke-width="4"/>
  <path d="M1040 540V400" stroke="#23D5A9" stroke-opacity="0.85" stroke-width="4"/>
  <path d="M1040 400H944" stroke="#23D5A9" stroke-opacity="0.85" stroke-width="4"/>
  <path d="M1040 400H1136" stroke="#23D5A9" stroke-opacity="0.85" stroke-width="4"/>

  <rect x="916" y="490" width="248" height="100" rx="24" fill="#08131D" stroke="#29D1A5" stroke-width="2"/>
  <text x="1010" y="526" fill="#59E0AA" font-size="18" font-family="Segoe UI, PingFang SC, Microsoft YaHei, sans-serif">Root</text>
  <text x="964" y="560" fill="white" font-size="34" font-family="Segoe UI, PingFang SC, Microsoft YaHei, sans-serif" font-weight="700">MoonMarkMind</text>

  <g font-family="Segoe UI, PingFang SC, Microsoft YaHei, sans-serif">
    <rect x="800" y="356" width="176" height="80" rx="18" fill="#152437" stroke="#27425D"/>
    <text x="828" y="387" fill="#7892AC" font-size="16">Level 2</text>
    <text x="840" y="416" fill="#F5FAFF" font-size="22" font-weight="700">Renderer</text>

    <rect x="1104" y="356" width="176" height="80" rx="18" fill="#152437" stroke="#27425D"/>
    <text x="1132" y="387" fill="#7892AC" font-size="16">Level 2</text>
    <text x="1158" y="416" fill="#F5FAFF" font-size="22" font-weight="700">Parser</text>

    <rect x="726" y="652" width="210" height="80" rx="18" fill="#152437" stroke="#27425D"/>
    <text x="754" y="683" fill="#7892AC" font-size="16">Level 3</text>
    <text x="758" y="712" fill="#F5FAFF" font-size="22" font-weight="700">ASCII mindmap</text>

    <rect x="726" y="754" width="210" height="80" rx="18" fill="#152437" stroke="#27425D"/>
    <text x="754" y="785" fill="#7892AC" font-size="16">Level 3</text>
    <text x="762" y="814" fill="#F5FAFF" font-size="22" font-weight="700">Round-trip</text>

    <rect x="1248" y="652" width="210" height="80" rx="18" fill="#152437" stroke="#27425D"/>
    <text x="1276" y="683" fill="#7892AC" font-size="16">Level 3</text>
    <text x="1276" y="712" fill="#F5FAFF" font-size="22" font-weight="700">Heading extraction</text>

    <rect x="1248" y="754" width="210" height="80" rx="18" fill="#152437" stroke="#27425D"/>
    <text x="1276" y="785" fill="#7892AC" font-size="16">Level 3</text>
    <text x="1300" y="814" fill="#F5FAFF" font-size="22" font-weight="700">Level mapping</text>
  </g>
</svg>
