<svg width="1600" height="1000" viewBox="0 0 1600 1000" fill="none" xmlns="http://www.w3.org/2000/svg">
  <rect width="1600" height="1000" fill="#F5F0E7"/>
  <rect x="44" y="40" width="1512" height="920" rx="20" fill="#F2ECE1" stroke="#1D1D1B" stroke-width="2"/>
  <line x1="796" y1="82" x2="796" y2="918" stroke="#1D1D1B" stroke-width="2"/>
  <line x1="78" y1="168" x2="1522" y2="168" stroke="#1D1D1B" stroke-width="2"/>

  <text x="84" y="116" fill="#151515" font-size="40" font-family="Georgia, Times New Roman, serif" font-weight="700">MoonMarkMind</text>
  <text x="1320" y="116" fill="#6E675E" font-size="20" font-family="Georgia, Times New Roman, serif">Editorial System</text>

  <g font-family="Segoe UI, PingFang SC, Microsoft YaHei, sans-serif" font-size="18" font-weight="700">
    <rect x="84" y="96" width="88" height="34" rx="17" fill="#F7A48B"/>
    <text x="111" y="118" fill="#171717">新建</text>
    <rect x="182" y="96" width="88" height="34" rx="17" fill="#8AC6A2"/>
    <text x="209" y="118" fill="#171717">上传</text>
    <rect x="280" y="96" width="88" height="34" rx="17" fill="#A4BFF7"/>
    <text x="307" y="118" fill="#171717">下载</text>
  </g>

  <g font-family="Segoe UI, PingFang SC, Microsoft YaHei, sans-serif" font-size="18">
    <text x="912" y="117" fill="#7C756C">类型</text>
    <text x="1012" y="117" fill="#171717" font-weight="700">思维图</text>
    <text x="1110" y="117" fill="#7C756C">样式</text>
    <text x="1210" y="117" fill="#171717" font-weight="700">线条</text>
    <text x="1300" y="117" fill="#7C756C">层级</text>
    <text x="1398" y="117" fill="#171717" font-weight="700">全部</text>
    <text x="1480" y="117" fill="#B66B1E" font-weight="700">导出</text>
  </g>

  <text x="84" y="208" fill="#8A8178" font-size="18" font-family="Segoe UI, PingFang SC, Microsoft YaHei, sans-serif">Markdown</text>
  <rect x="84" y="230" width="658" height="668" fill="#EFE6D7" stroke="#1D1D1B" stroke-width="2"/>
  <g fill="#141414" font-size="32" font-family="Courier New, Consolas, monospace">
    <text x="116" y="312"># MoonMarkMind Demo</text>
    <text x="116" y="372">## Parser</text>
    <text x="116" y="432">### Heading extraction</text>
    <text x="116" y="492">### Level mapping</text>
    <text x="116" y="552">## Renderer</text>
    <text x="116" y="612">### ASCII mindmap</text>
    <text x="116" y="672">### Round-trip preview</text>
  </g>

  <text x="836" y="208" fill="#8A8178" font-size="18" font-family="Segoe UI, PingFang SC, Microsoft YaHei, sans-serif">MindMap</text>
  <rect x="836" y="230" width="686" height="668" fill="#FBF8F3" stroke="#1D1D1B" stroke-width="2"/>
  <rect x="864" y="256" width="630" height="50" fill="#F2ECE1" stroke="#1D1D1B" stroke-width="2"/>

  <g stroke="#1D1D1B" stroke-width="2">
    <rect x="882" y="268" width="26" height="26"/>
    <rect x="920" y="268" width="26" height="26"/>
    <rect x="958" y="268" width="26" height="26"/>
    <rect x="996" y="268" width="26" height="26"/>
    <rect x="1034" y="268" width="26" height="26"/>
    <rect x="1072" y="268" width="26" height="26"/>
  </g>
  <text x="1396" y="289" fill="#151515" font-size="18" font-family="Segoe UI, PingFang SC, Microsoft YaHei, sans-serif">100%</text>

  <rect x="872" y="332" width="614" height="532" fill="#F6F0E8" stroke="#1D1D1B" stroke-width="2" stroke-dasharray="10 8"/>

  <path d="M1168 520H1260" stroke="#1D1D1B" stroke-width="3"/>
  <path d="M1168 520H1076" stroke="#1D1D1B" stroke-width="3"/>
  <path d="M1076 520V680" stroke="#1D1D1B" stroke-width="3"/>
  <path d="M1260 520V680" stroke="#1D1D1B" stroke-width="3"/>
  <path d="M1076 680H1000" stroke="#1D1D1B" stroke-width="3"/>
  <path d="M1076 776H1000" stroke="#1D1D1B" stroke-width="3"/>
  <path d="M1260 680H1336" stroke="#1D1D1B" stroke-width="3"/>
  <path d="M1260 776H1336" stroke="#1D1D1B" stroke-width="3"/>
  <path d="M1168 520V400" stroke="#1D1D1B" stroke-width="3"/>
  <path d="M1168 400H1080" stroke="#1D1D1B" stroke-width="3"/>
  <path d="M1168 400H1256" stroke="#1D1D1B" stroke-width="3"/>

  <rect x="1084" y="474" width="168" height="92" fill="#161616"/>
  <text x="1138" y="512" fill="#B3B3B3" font-size="16" font-family="Georgia, Times New Roman, serif">Level 1</text>
  <text x="1112" y="540" fill="white" font-size="30" font-family="Georgia, Times New Roman, serif" font-weight="700">MoonMarkMind</text>

  <g font-family="Segoe UI, PingFang SC, Microsoft YaHei, sans-serif" font-size="16">
    <rect x="980" y="360" width="132" height="68" fill="#FFFFFF" stroke="#1D1D1B" stroke-width="2"/>
    <text x="996" y="388" fill="#847B71">Level 2</text>
    <text x="1018" y="413" fill="#171717" font-size="20" font-weight="700">Renderer</text>

    <rect x="1224" y="360" width="132" height="68" fill="#FFFFFF" stroke="#1D1D1B" stroke-width="2"/>
    <text x="1240" y="388" fill="#847B71">Level 2</text>
    <text x="1276" y="413" fill="#171717" font-size="20" font-weight="700">Parser</text>

    <rect x="924" y="646" width="152" height="68" fill="#FFFFFF" stroke="#1D1D1B" stroke-width="2"/>
    <text x="940" y="674" fill="#847B71">Level 3</text>
    <text x="942" y="699" fill="#171717" font-size="20" font-weight="700">ASCII map</text>

    <rect x="924" y="742" width="152" height="68" fill="#FFFFFF" stroke="#1D1D1B" stroke-width="2"/>
    <text x="940" y="770" fill="#847B71">Level 3</text>
    <text x="934" y="795" fill="#171717" font-size="20" font-weight="700">Round-trip</text>

    <rect x="1336" y="646" width="152" height="68" fill="#FFFFFF" stroke="#1D1D1B" stroke-width="2"/>
    <text x="1352" y="674" fill="#847B71">Level 3</text>
    <text x="1352" y="699" fill="#171717" font-size="20" font-weight="700">Heading</text>

    <rect x="1336" y="742" width="152" height="68" fill="#FFFFFF" stroke="#1D1D1B" stroke-width="2"/>
    <text x="1352" y="770" fill="#847B71">Level 3</text>
    <text x="1356" y="795" fill="#171717" font-size="20" font-weight="700">Mapping</text>
  </g>

  <text x="84" y="930" fill="#6C645B" font-size="16" font-family="Segoe UI, PingFang SC, Microsoft YaHei, sans-serif">方向 B: 更像编辑器产品页，克制、理性、适合桌面工具品牌化。</text>
</svg>
