<svg width="1600" height="1000" viewBox="0 0 1600 1000" fill="none" xmlns="http://www.w3.org/2000/svg">
  <defs>
    <linearGradient id="bgNight" x1="150" y1="40" x2="1450" y2="960" gradientUnits="userSpaceOnUse">
      <stop stop-color="#09111D"/>
      <stop offset="0.48" stop-color="#101B2F"/>
      <stop offset="1" stop-color="#070C15"/>
    </linearGradient>
    <linearGradient id="glassNight" x1="0" y1="0" x2="0" y2="1">
      <stop stop-color="#1D2A3F" stop-opacity="0.86"/>
      <stop offset="1" stop-color="#141D2E" stop-opacity="0.72"/>
    </linearGradient>
    <linearGradient id="panelGlow" x1="0" y1="0" x2="1" y2="1">
      <stop stop-color="#56C7FF"/>
      <stop offset="1" stop-color="#72F0C5"/>
    </linearGradient>
    <filter id="softBlur" x="-20%" y="-20%" width="140%" height="140%">
      <feGaussianBlur stdDeviation="44"/>
    </filter>
    <filter id="shadowNight" x="-20%" y="-20%" width="140%" height="140%">
      <feDropShadow dx="0" dy="22" stdDeviation="28" flood-color="#02060D" flood-opacity="0.58"/>
    </filter>
  </defs>
  <rect width="1600" height="1000" fill="url(#bgNight)"/>
  <circle cx="250" cy="170" r="150" fill="#1A8FFF" opacity="0.18" filter="url(#softBlur)"/>
  <circle cx="1330" cy="170" r="160" fill="#0ED3A5" opacity="0.16" filter="url(#softBlur)"/>
  <circle cx="1290" cy="850" r="180" fill="#6F88FF" opacity="0.14" filter="url(#softBlur)"/>
  <rect x="34" y="28" width="1532" height="944" rx="36" fill="#FFFFFF" fill-opacity="0.03" stroke="#A2C5FF" stroke-opacity="0.14" stroke-width="2"/>
  <rect x="56" y="50" width="1488" height="900" rx="34" fill="#0E1725" fill-opacity="0.72" filter="url(#shadowNight)"/>
  <text x="96" y="106" fill="#F4F8FF" font-size="34" font-family="Segoe UI, PingFang SC, Microsoft YaHei, sans-serif" font-weight="700">MoonMarkMind</text>
  <text x="1260" y="105" fill="#7EDBC8" font-size="18" font-family="Segoe UI, PingFang SC, Microsoft YaHei, sans-serif">Aurora Glass Night</text>
  <g font-family="Segoe UI, PingFang SC, Microsoft YaHei, sans-serif" font-size="20" font-weight="600">
    <rect x="96" y="134" width="110" height="48" rx="24" fill="#1B202B" stroke="#FF8E7D" stroke-opacity="0.85" stroke-width="2"/>
    <text x="131" y="165" fill="#FF9A88">新建</text>
    <rect x="222" y="134" width="110" height="48" rx="24" fill="#152521" stroke="#60E0AF" stroke-opacity="0.9" stroke-width="2"/>
    <text x="257" y="165" fill="#76EDBB">上传</text>
    <rect x="348" y="134" width="110" height="48" rx="24" fill="#162435" stroke="#6FB7FF" stroke-opacity="0.9" stroke-width="2"/>
    <text x="383" y="165" fill="#88C6FF">下载</text>
  </g>
  <g font-family="Segoe UI, PingFang SC, Microsoft YaHei, sans-serif">
    <text x="860" y="166" fill="#7F96B3" font-size="18">类型</text>
    <rect x="908" y="134" width="126" height="48" rx="24" fill="#182435" stroke="#2A3E56" stroke-width="2"/>
    <text x="944" y="165" fill="#F2F7FF" font-size="20" font-weight="600">思维图</text>
    <text x="1062" y="166" fill="#7F96B3" font-size="18">样式</text>
    <rect x="1110" y="134" width="126" height="48" rx="24" fill="#182435" stroke="#2A3E56" stroke-width="2"/>
    <text x="1148" y="165" fill="#F2F7FF" font-size="20" font-weight="600">线条</text>
    <text x="1262" y="166" fill="#7F96B3" font-size="18">层级</text>
    <rect x="1310" y="134" width="126" height="48" rx="24" fill="#182435" stroke="#2A3E56" stroke-width="2"/>
    <text x="1354" y="165" fill="#F2F7FF" font-size="20" font-weight="600">全部</text>
  </g>
  <rect x="1452" y="134" width="92" height="48" rx="24" fill="url(#panelGlow)"/>
  <text x="1476" y="165" fill="#05211D" font-size="20" font-family="Segoe UI, PingFang SC, Microsoft YaHei, sans-serif" font-weight="700">导出</text>
  <rect x="86" y="214" width="468" height="678" rx="30" fill="url(#glassNight)" stroke="#334964" stroke-width="2"/>
  <text x="118" y="264" fill="#7B93AF" font-size="18" font-family="Segoe UI, PingFang SC, Microsoft YaHei, sans-serif">Markdown</text>
  <g fill="#E9F1FF" font-size="34" font-family="Cascadia Code, Consolas, monospace">
    <text x="118" y="332"># MoonMarkMind</text>
    <text x="118" y="390">## Parser</text>
    <text x="118" y="448">### Heading extraction</text>
    <text x="118" y="506">### Level mapping</text>
    <text x="118" y="564">## Renderer</text>
    <text x="118" y="622">### ASCII mindmap</text>
    <text x="118" y="680">### Round-trip preview</text>
  </g>
  <rect x="586" y="214" width="872" height="678" rx="30" fill="url(#glassNight)" stroke="#334964" stroke-width="2"/>
  <rect x="616" y="244" width="812" height="74" rx="24" fill="#121D2C" stroke="#24364D"/>
  <g>
    <circle cx="654" cy="281" r="18" fill="#18283B" stroke="#2C4560"/>
    <circle cx="708" cy="281" r="18" fill="#18283B" stroke="#2C4560"/>
    <circle cx="762" cy="281" r="18" fill="#18283B" stroke="#2C4560"/>
    <circle cx="816" cy="281" r="18" fill="#18283B" stroke="#2C4560"/>
    <circle cx="870" cy="281" r="18" fill="#18283B" stroke="#2C4560"/>
    <circle cx="924" cy="281" r="18" fill="#18283B" stroke="#2C4560"/>
  </g>
  <rect x="1268" y="257" width="130" height="48" rx="24" fill="#162434" stroke="#29425B"/>
  <text x="1311" y="287" fill="#AEC2DC" font-size="20" font-family="Segoe UI, PingFang SC, Microsoft YaHei, sans-serif">100%</text>
  <rect x="622" y="340" width="800" height="520" rx="26" stroke="#2B4562" stroke-width="2" stroke-dasharray="8 8"/>
  <path d="M1040 550H1160" stroke="#2E96FF" stroke-opacity="0.55" stroke-width="4"/>
  <path d="M1040 550H920" stroke="#2E96FF" stroke-opacity="0.55" stroke-width="4"/>
  <path d="M920 550V698" stroke="#2E96FF" stroke-opacity="0.42" stroke-width="4"/>
  <path d="M1160 550V698" stroke="#2E96FF" stroke-opacity="0.42" stroke-width="4"/>
  <path d="M920 688H822" stroke="#2E96FF" stroke-opacity="0.42" stroke-width="4"/>
  <path d="M920 786H822" stroke="#2E96FF" stroke-opacity="0.42" stroke-width="4"/>
  <path d="M1160 688H1258" stroke="#2E96FF" stroke-opacity="0.42" stroke-width="4"/>
  <path d="M1160 786H1258" stroke="#2E96FF" stroke-opacity="0.42" stroke-width="4"/>
  <path d="M1040 550V414" stroke="#2AF0C0" stroke-opacity="0.55" stroke-width="4"/>
  <path d="M1040 414H944" stroke="#2AF0C0" stroke-opacity="0.55" stroke-width="4"/>
  <path d="M1040 414H1136" stroke="#2AF0C0" stroke-opacity="0.55" stroke-width="4"/>
  <rect x="930" y="500" width="220" height="100" rx="28" fill="#08131D" stroke="#30DDB3" stroke-width="2"/>
  <text x="993" y="540" fill="#79D7C6" font-size="18" font-family="Segoe UI, PingFang SC, Microsoft YaHei, sans-serif">Level 1</text>
  <text x="965" y="575" fill="white" font-size="36" font-family="Segoe UI, PingFang SC, Microsoft YaHei, sans-serif" font-weight="700">MoonMarkMind</text>
  <g font-family="Segoe UI, PingFang SC, Microsoft YaHei, sans-serif" font-size="18">
    <rect x="804" y="370" width="170" height="82" rx="24" fill="#162434" stroke="#31506E" stroke-width="2"/>
    <text x="834" y="405" fill="#8BA3BC">Level 2</text>
    <text x="840" y="432" fill="#F2F7FF" font-size="20" font-weight="700">Renderer</text>
    <rect x="1106" y="370" width="170" height="82" rx="24" fill="#162434" stroke="#31506E" stroke-width="2"/>
    <text x="1136" y="405" fill="#8BA3BC">Level 2</text>
    <text x="1148" y="432" fill="#F2F7FF" font-size="20" font-weight="700">Parser</text>
    <rect x="740" y="646" width="204" height="82" rx="24" fill="#162434" stroke="#31506E" stroke-width="2"/>
    <text x="770" y="681" fill="#8BA3BC">Level 3</text>
    <text x="776" y="708" fill="#F2F7FF" font-size="20" font-weight="700">ASCII mindmap</text>
    <rect x="740" y="744" width="204" height="82" rx="24" fill="#162434" stroke="#31506E" stroke-width="2"/>
    <text x="770" y="779" fill="#8BA3BC">Level 3</text>
    <text x="760" y="806" fill="#F2F7FF" font-size="20" font-weight="700">Round-trip</text>
    <rect x="1236" y="646" width="204" height="82" rx="24" fill="#162434" stroke="#31506E" stroke-width="2"/>
    <text x="1266" y="681" fill="#8BA3BC">Level 3</text>
    <text x="1258" y="708" fill="#F2F7FF" font-size="20" font-weight="700">Heading extraction</text>
    <rect x="1236" y="744" width="204" height="82" rx="24" fill="#162434" stroke="#31506E" stroke-width="2"/>
    <text x="1266" y="779" fill="#8BA3BC">Level 3</text>
    <text x="1292" y="806" fill="#F2F7FF" font-size="20" font-weight="700">Level mapping</text>
  </g>
</svg>
